<mxfile host="app.diagrams.net" agent="Mozilla/5.0 (Windows NT 10.0; Win64; x64) AppleWebKit/537.36 (KHTML, like Gecko) Chrome/138.0.0.0 Safari/537.36" version="28.0.7">
  <diagram name="Page-1" id="QGcPZrKG5rwrYhDZBCL4">
    <mxGraphModel dx="2050" dy="834" grid="1" gridSize="10" guides="1" tooltips="1" connect="1" arrows="1" fold="1" page="1" pageScale="1" pageWidth="850" pageHeight="1100" math="0" shadow="0">
      <root>
        <mxCell id="0" />
        <mxCell id="1" parent="0" />
        <mxCell id="HQnmu_KGiObmo_e5Pi8O-53" value="" style="rounded=1;whiteSpace=wrap;html=1;" parent="1" vertex="1">
          <mxGeometry x="80" y="100" width="150" height="440" as="geometry" />
        </mxCell>
        <mxCell id="HQnmu_KGiObmo_e5Pi8O-54" value="Data Sources" style="text;strokeColor=none;align=center;fillColor=none;html=1;verticalAlign=middle;whiteSpace=wrap;rounded=0;" parent="1" vertex="1">
          <mxGeometry x="122" y="555" width="60" height="30" as="geometry" />
        </mxCell>
        <mxCell id="HQnmu_KGiObmo_e5Pi8O-55" value="Cloud&#xa;VPN" style="sketch=0;html=1;verticalAlign=top;labelPosition=center;verticalLabelPosition=bottom;align=center;spacingTop=-6;fontSize=11;fontStyle=1;fontColor=#999999;shape=image;aspect=fixed;imageAspect=0;image=data:image/svg+xml,PHN2ZyB4bWxucz0iaHR0cDovL3d3dy53My5vcmcvMjAwMC9zdmciIHhtbG5zOnY9Imh0dHBzOi8vdmVjdGEuaW8vbmFubyIgd2lkdGg9IjE3Ljk1MDAwMDc2MjkzOTQ1MyIgaGVpZ2h0PSIyMCIgdmlld0JveD0iMCAwIDE3Ljk1MDAwMDc2MjkzOTQ1MyAyMCI+JiN4YTsJPHN0eWxlIHR5cGU9InRleHQvY3NzIj4mI3hhOwkuc3Qwe2ZpbGw6IzQyODVmNDt9JiN4YTsJLnN0MXtmaWxsOiM2NjlkZjY7fSYjeGE7CTwvc3R5bGU+JiN4YTsJPGcgY2xhc3M9InN0MSI+JiN4YTsJCTxwYXRoIGQ9Ik0xMS43IDkuMjhoNC4xOHYxLjM4SDExLjd6Ii8+JiN4YTsJCTxwYXRoIGQ9Ik0xNC45MiA0LjEyaDEuMzh2MTEuNzFoLTEuMzh6Ii8+JiN4YTsJPC9nPiYjeGE7CTxnIGNsYXNzPSJzdDAiPiYjeGE7CQk8cmVjdCB4PSIxMy4yNyIgeT0iMTUuMzIiIHdpZHRoPSI0LjY4IiBoZWlnaHQ9IjQuNjgiIHJ4PSIuMjgiLz4mI3hhOwkJPHJlY3QgeD0iMTMuMjciIHdpZHRoPSI0LjY4IiBoZWlnaHQ9IjQuNjgiIHJ4PSIuMjgiLz4mI3hhOwk8L2c+JiN4YTsJPHBhdGggY2xhc3M9InN0MSIgZD0iTTMuOTUgOS4yOGg0LjI4djEuMzhIMy45NXoiLz4mI3hhOwk8ZyBjbGFzcz0ic3QwIj4mI3hhOwkJPHJlY3QgeT0iNy42MyIgd2lkdGg9IjQuNjgiIGhlaWdodD0iNC42OCIgcng9Ii4yOCIvPiYjeGE7CQk8cGF0aCBkPSJNOS45NyAxMi4xN2EyLjIgMi4yIDAgMSAxIDAtNC40IDIuMiAyLjIgMCAwIDEgMi4yIDIuMiAyLjE5IDIuMTkgMCAwIDEtMi4yIDIuMnptMC0zLjU3YTEuMzggMS4zOCAwIDAgMC0xLjA1IDIuMzNBMS4zOCAxLjM4IDAgMCAwIDExLjMgMTBhMS4zNyAxLjM3IDAgMCAwLTEuMzMtMS40eiIvPiYjeGE7CTwvZz4mI3hhOzwvc3ZnPg==;" parent="1" vertex="1">
          <mxGeometry x="264" y="290" width="42" height="42" as="geometry" />
        </mxCell>
        <mxCell id="HQnmu_KGiObmo_e5Pi8O-56" value="Cloud&#xa;Interconnect" style="sketch=0;html=1;verticalAlign=top;labelPosition=center;verticalLabelPosition=bottom;align=center;spacingTop=-6;fontSize=11;fontStyle=1;fontColor=#999999;shape=image;aspect=fixed;imageAspect=0;image=data:image/svg+xml,PHN2ZyB4bWxucz0iaHR0cDovL3d3dy53My5vcmcvMjAwMC9zdmciIHhtbG5zOnY9Imh0dHBzOi8vdmVjdGEuaW8vbmFubyIgd2lkdGg9IjIwIiBoZWlnaHQ9IjE4IiBmaWxsLXJ1bGU9ImV2ZW5vZGQiIHZpZXdCb3g9IjAgMCAyMCAxOCI+JiN4YTsJPHN0eWxlIHR5cGU9InRleHQvY3NzIj4mI3hhOwkuc3Qwe2ZpbGw6IzQyODVmNDt9JiN4YTsJLnN0MXtmaWxsOiM2NjlkZjY7fSYjeGE7CS5zdDJ7ZmlsbDojYWVjYmZhO30mI3hhOwk8L3N0eWxlPiYjeGE7CTxwYXRoIGNsYXNzPSJzdDAiIGQ9Ik00IDhIMHYyaDR6Ii8+JiN4YTsJPHBhdGggY2xhc3M9InN0MiIgZD0iTTMgNGgxMHYxMEgzeiIvPiYjeGE7CTxwYXRoIGNsYXNzPSJzdDAiIGQ9Ik0yMCA4aC00LjY3djJIMjB6Ii8+JiN4YTsJPHBhdGggY2xhc3M9InN0MSIgZD0iTTE1IDJ2MTRINnYyaDExdi0yVjIgMEg2djJ6TTggNGg1djEwSDh6Ii8+JiN4YTs8L3N2Zz4=;" parent="1" vertex="1">
          <mxGeometry x="262" y="176" width="42" height="38" as="geometry" />
        </mxCell>
        <mxCell id="HQnmu_KGiObmo_e5Pi8O-57" value="" style="rounded=1;whiteSpace=wrap;html=1;" parent="1" vertex="1">
          <mxGeometry x="337" y="155" width="93" height="210" as="geometry" />
        </mxCell>
        <mxCell id="HQnmu_KGiObmo_e5Pi8O-58" value="Virtual&#xa;Private Cloud" style="sketch=0;html=1;verticalAlign=top;labelPosition=center;verticalLabelPosition=bottom;align=center;spacingTop=-6;fontSize=11;fontStyle=1;fontColor=#999999;shape=image;aspect=fixed;imageAspect=0;image=data:image/svg+xml,PHN2ZyB4bWxucz0iaHR0cDovL3d3dy53My5vcmcvMjAwMC9zdmciIHhtbG5zOnY9Imh0dHBzOi8vdmVjdGEuaW8vbmFubyIgd2lkdGg9IjIwIiBoZWlnaHQ9IjIwIiB2aWV3Qm94PSIwIDAgMjAgMjAiPiYjeGE7CTxzdHlsZSB0eXBlPSJ0ZXh0L2NzcyI+JiN4YTsJLnN0MHtmaWxsOiM0Mjg1ZjQ7fSYjeGE7CS5zdDF7ZmlsbDojNjY5ZGY2O30mI3hhOwkuc3Qye2ZpbGw6I2FlY2JmYTt9JiN4YTsJPC9zdHlsZT4mI3hhOwk8cGF0aCBjbGFzcz0ic3QyIiBkPSJNMTQgMGg2djZoLTZ6Ii8+JiN4YTsJPHBhdGggY2xhc3M9InN0MSIgZD0iTTE3IDBoM3Y2aC0zeiIvPiYjeGE7CTxwYXRoIGNsYXNzPSJzdDIiIGQ9Ik0xNCAxNGg2djZoLTZ6Ii8+JiN4YTsJPHBhdGggY2xhc3M9InN0MSIgZD0iTTE3IDE0aDN2NmgtM3oiLz4mI3hhOwk8cGF0aCBjbGFzcz0ic3QyIiBkPSJNMCAwaDZ2NkgweiIvPiYjeGE7CTxwYXRoIGNsYXNzPSJzdDEiIGQ9Ik0zIDBoM3Y2SDN6Ii8+JiN4YTsJPHBhdGggY2xhc3M9InN0MiIgZD0iTTAgMTRoNnY2SDB6Ii8+JiN4YTsJPGcgY2xhc3M9InN0MSI+JiN4YTsJCTxwYXRoIGQ9Ik0zIDE0aDN2Nkgzek02IDJoOHYySDZ6Ii8+JiN4YTsJCTxwYXRoIGQ9Ik02IDE2aDh2Mkg2ek0xNiA2aDJ2OGgtMnpNMiA2aDJ2OEgyeiIvPiYjeGE7CTwvZz4mI3hhOwk8cGF0aCBjbGFzcz0ic3QwIiBkPSJNMiA2aDJ2Mkgyem0xNCAwaDJ2MmgtMnpNNiAyaDJ2Mkg2em0wIDE0aDJ2Mkg2eiIvPiYjeGE7PC9zdmc+;" parent="1" vertex="1">
          <mxGeometry x="366" y="229" width="42" height="42" as="geometry" />
        </mxCell>
        <mxCell id="HQnmu_KGiObmo_e5Pi8O-59" value="" style="rounded=0;whiteSpace=wrap;html=1;strokeColor=light-dark(#4284f3, #ededed);" parent="1" vertex="1">
          <mxGeometry x="460" y="40" width="1540" height="1050" as="geometry" />
        </mxCell>
        <mxCell id="HQnmu_KGiObmo_e5Pi8O-60" value="" style="rounded=0;whiteSpace=wrap;html=1;" parent="1" vertex="1">
          <mxGeometry x="526" y="150" width="224" height="210" as="geometry" />
        </mxCell>
        <mxCell id="HQnmu_KGiObmo_e5Pi8O-61" value="&lt;font style=&quot;font-size: 18px; color: light-dark(rgb(66, 123, 243), rgb(237, 237, 237));&quot;&gt;&lt;b&gt;Data Ingestion &amp;amp; Staging&lt;/b&gt;&lt;/font&gt;" style="text;strokeColor=none;align=center;fillColor=none;html=1;verticalAlign=middle;whiteSpace=wrap;rounded=0;" parent="1" vertex="1">
          <mxGeometry x="527" y="159" width="225" height="30" as="geometry" />
        </mxCell>
        <mxCell id="S1izNGwBGKpVqLdzcg1b-28" style="edgeStyle=orthogonalEdgeStyle;rounded=0;orthogonalLoop=1;jettySize=auto;html=1;exitX=1;exitY=0.5;exitDx=0;exitDy=0;entryX=0.5;entryY=0;entryDx=0;entryDy=0;" edge="1" parent="1" target="S1izNGwBGKpVqLdzcg1b-23">
          <mxGeometry relative="1" as="geometry">
            <mxPoint x="730" y="248" as="sourcePoint" />
          </mxGeometry>
        </mxCell>
        <mxCell id="HQnmu_KGiObmo_e5Pi8O-62" value="" style="fillColor=#ffffff;strokeColor=#dddddd;shadow=1;strokeWidth=1;rounded=1;absoluteArcSize=1;arcSize=2;" parent="1" vertex="1">
          <mxGeometry x="542" y="223" width="180" height="50" as="geometry" />
        </mxCell>
        <mxCell id="HQnmu_KGiObmo_e5Pi8O-63" value="&lt;font color=&quot;#000000&quot;&gt;Raw Landing Bucket&lt;/font&gt;&lt;br&gt;Cloud Storage" style="editableCssRules=.*;html=1;fontColor=#999999;shape=image;verticalLabelPosition=middle;verticalAlign=middle;labelPosition=right;align=left;spacingLeft=20;part=1;points=[];imageAspect=0;image=data:image/svg+xml,PHN2ZyB4bWxucz0iaHR0cDovL3d3dy53My5vcmcvMjAwMC9zdmciIHhtbG5zOnY9Imh0dHBzOi8vdmVjdGEuaW8vbmFubyIgd2lkdGg9IjIwIiBoZWlnaHQ9IjE2IiB2aWV3Qm94PSIwIDAgMjAgMTYiPiYjeGE7CTxzdHlsZSB0eXBlPSJ0ZXh0L2NzcyI+JiN4YTsJLnN0MHtmaWxsOiM0Mjg1ZjQ7fSYjeGE7CS5zdDF7ZmlsbDojNjY5ZGY2O30mI3hhOwkuc3Qye2ZpbGw6I2FlY2JmYTt9JiN4YTsJLnN0M3tmaWxsOiNmZmY7fSYjeGE7CTwvc3R5bGU+JiN4YTsJPHBhdGggY2xhc3M9InN0MiIgZD0iTTAgMGgyMHY3SDB6Ii8+JiN4YTsJPHBhdGggY2xhc3M9InN0MSIgZD0iTTE4IDBoMnY3aC0yeiIvPiYjeGE7CTxwYXRoIGNsYXNzPSJzdDAiIGQ9Ik0xOCA3bDItN2gtMnoiLz4mI3hhOwk8cGF0aCBjbGFzcz0ic3QxIiBkPSJNMCAwaDJ2N0gweiIvPiYjeGE7CTxnIGNsYXNzPSJzdDMiPiYjeGE7CQk8cGF0aCBkPSJNNCAzaDZ2MUg0eiIvPiYjeGE7CQk8cmVjdCB4PSIxMyIgeT0iMiIgd2lkdGg9IjMiIGhlaWdodD0iMyIgcng9IjEuNSIvPiYjeGE7CTwvZz4mI3hhOwk8cGF0aCBjbGFzcz0ic3QyIiBkPSJNMCA5aDIwdjdIMHoiLz4mI3hhOwk8cGF0aCBjbGFzcz0ic3QxIiBkPSJNMTggOWgydjdoLTJ6Ii8+JiN4YTsJPHBhdGggY2xhc3M9InN0MCIgZD0iTTE4IDE2bDItN2gtMnoiLz4mI3hhOwk8cGF0aCBjbGFzcz0ic3QxIiBkPSJNMCA5aDJ2N0gweiIvPiYjeGE7CTxnIGNsYXNzPSJzdDMiPiYjeGE7CQk8cGF0aCBkPSJNNCAxMmg2djFINHoiLz4mI3hhOwkJPHJlY3QgeD0iMTMiIHk9IjExIiB3aWR0aD0iMyIgaGVpZ2h0PSIzIiByeD0iMS41Ii8+JiN4YTsJPC9nPiYjeGE7PC9zdmc+;" parent="HQnmu_KGiObmo_e5Pi8O-62" vertex="1">
          <mxGeometry width="30" height="24" relative="1" as="geometry">
            <mxPoint x="15" y="18" as="offset" />
          </mxGeometry>
        </mxCell>
        <mxCell id="HQnmu_KGiObmo_e5Pi8O-69" value="" style="edgeStyle=orthogonalEdgeStyle;fontSize=12;html=1;endArrow=blockThin;endFill=1;rounded=0;strokeWidth=2;endSize=4;startSize=4;dashed=0;strokeColor=#4284F3;" parent="1" edge="1">
          <mxGeometry width="100" relative="1" as="geometry">
            <mxPoint x="431" y="258" as="sourcePoint" />
            <mxPoint x="540" y="258" as="targetPoint" />
          </mxGeometry>
        </mxCell>
        <mxCell id="HQnmu_KGiObmo_e5Pi8O-75" value="" style="image;aspect=fixed;html=1;points=[];align=center;fontSize=12;image=img/lib/azure2/databases/SQL_Server.svg;" parent="1" vertex="1">
          <mxGeometry x="125" y="119" width="68" height="68" as="geometry" />
        </mxCell>
        <mxCell id="HQnmu_KGiObmo_e5Pi8O-76" value="" style="points=[];aspect=fixed;html=1;align=center;shadow=0;dashed=0;fillColor=#FF6A00;strokeColor=none;shape=mxgraph.alibaba_cloud.nas_network_attached_storage;" parent="1" vertex="1">
          <mxGeometry x="130" y="238" width="43" height="43" as="geometry" />
        </mxCell>
        <mxCell id="HQnmu_KGiObmo_e5Pi8O-77" value="SQL Server" style="text;strokeColor=none;align=center;fillColor=none;html=1;verticalAlign=middle;whiteSpace=wrap;rounded=0;" parent="1" vertex="1">
          <mxGeometry x="121.5" y="190" width="60" height="30" as="geometry" />
        </mxCell>
        <mxCell id="HQnmu_KGiObmo_e5Pi8O-78" value="NAS Drive" style="text;strokeColor=none;align=center;fillColor=none;html=1;verticalAlign=middle;whiteSpace=wrap;rounded=0;" parent="1" vertex="1">
          <mxGeometry x="121.5" y="281" width="60" height="30" as="geometry" />
        </mxCell>
        <mxCell id="HQnmu_KGiObmo_e5Pi8O-79" value="" style="image;aspect=fixed;html=1;points=[];align=center;fontSize=12;image=img/lib/azure2/databases/Oracle_Database.svg;" parent="1" vertex="1">
          <mxGeometry x="118" y="320" width="68" height="68" as="geometry" />
        </mxCell>
        <mxCell id="HQnmu_KGiObmo_e5Pi8O-80" value="Oracle Databases" style="text;strokeColor=none;align=center;fillColor=none;html=1;verticalAlign=middle;whiteSpace=wrap;rounded=0;" parent="1" vertex="1">
          <mxGeometry x="130" y="395" width="60" height="30" as="geometry" />
        </mxCell>
        <mxCell id="HQnmu_KGiObmo_e5Pi8O-81" value="DB2" style="shape=rect;fillColor=#0F62FE;aspect=fixed;resizable=0;labelPosition=center;verticalLabelPosition=bottom;align=center;verticalAlign=top;strokeColor=none;fontSize=14;" parent="1" vertex="1">
          <mxGeometry x="133.5" y="440.75" width="48" height="48" as="geometry" />
        </mxCell>
        <mxCell id="HQnmu_KGiObmo_e5Pi8O-82" value="" style="fillColor=#ffffff;strokeColor=none;dashed=0;outlineConnect=0;html=1;labelPosition=center;verticalLabelPosition=bottom;verticalAlign=top;part=1;movable=0;resizable=0;rotatable=0;shape=mxgraph.ibm_cloud.ibm--db2" parent="HQnmu_KGiObmo_e5Pi8O-81" vertex="1">
          <mxGeometry width="24" height="24" relative="1" as="geometry">
            <mxPoint x="12" y="12" as="offset" />
          </mxGeometry>
        </mxCell>
        <mxCell id="HQnmu_KGiObmo_e5Pi8O-83" value="" style="edgeStyle=orthogonalEdgeStyle;fontSize=12;html=1;endArrow=blockThin;endFill=1;rounded=0;strokeWidth=2;endSize=4;startSize=4;dashed=0;strokeColor=#4284F3;" parent="1" edge="1">
          <mxGeometry width="100" relative="1" as="geometry">
            <mxPoint x="230" y="195" as="sourcePoint" />
            <mxPoint x="260" y="195" as="targetPoint" />
          </mxGeometry>
        </mxCell>
        <mxCell id="HQnmu_KGiObmo_e5Pi8O-84" value="" style="edgeStyle=orthogonalEdgeStyle;fontSize=12;html=1;endArrow=blockThin;endFill=1;rounded=0;strokeWidth=2;endSize=4;startSize=4;dashed=0;strokeColor=#4284F3;" parent="1" edge="1">
          <mxGeometry width="100" relative="1" as="geometry">
            <mxPoint x="306" y="195" as="sourcePoint" />
            <mxPoint x="336" y="195" as="targetPoint" />
          </mxGeometry>
        </mxCell>
        <mxCell id="HQnmu_KGiObmo_e5Pi8O-85" value="" style="edgeStyle=orthogonalEdgeStyle;fontSize=12;html=1;endArrow=blockThin;endFill=1;rounded=0;strokeWidth=2;endSize=4;startSize=4;dashed=0;strokeColor=#9E9E9E;" parent="1" edge="1">
          <mxGeometry width="100" relative="1" as="geometry">
            <mxPoint x="230" y="310" as="sourcePoint" />
            <mxPoint x="260" y="310" as="targetPoint" />
          </mxGeometry>
        </mxCell>
        <mxCell id="HQnmu_KGiObmo_e5Pi8O-86" value="" style="edgeStyle=orthogonalEdgeStyle;fontSize=12;html=1;endArrow=blockThin;endFill=1;rounded=0;strokeWidth=2;endSize=4;startSize=4;dashed=0;strokeColor=#9E9E9E;" parent="1" edge="1">
          <mxGeometry width="100" relative="1" as="geometry">
            <mxPoint x="306" y="310" as="sourcePoint" />
            <mxPoint x="336" y="310" as="targetPoint" />
          </mxGeometry>
        </mxCell>
        <mxCell id="HQnmu_KGiObmo_e5Pi8O-87" value="" style="fillColor=#ffffff;strokeColor=#dddddd;shadow=1;strokeWidth=1;rounded=1;absoluteArcSize=1;arcSize=2;" parent="1" vertex="1">
          <mxGeometry x="544" y="288" width="180" height="60" as="geometry" />
        </mxCell>
        <mxCell id="HQnmu_KGiObmo_e5Pi8O-88" value="&lt;font color=&quot;#000000&quot;&gt;Data Ingestion&lt;/font&gt;&lt;br&gt;Cloud Data Fusion" style="editableCssRules=.*;html=1;fontColor=#999999;shape=image;verticalLabelPosition=middle;verticalAlign=middle;labelPosition=right;align=left;spacingLeft=20;part=1;points=[];imageAspect=0;image=data:image/svg+xml,PHN2ZyB4bWxucz0iaHR0cDovL3d3dy53My5vcmcvMjAwMC9zdmciIHhtbG5zOnY9Imh0dHBzOi8vdmVjdGEuaW8vbmFubyIgd2lkdGg9IjM3Ny4wNDk2OTgzMjc3ODkyNiIgaGVpZ2h0PSIzNzcuMjkxNTcwNzE1Nzg5NzYiIHZpZXdCb3g9IjAuMTMxMDAwNTE4Nzk4ODI4MTIgLTAuMTIxMDAwMDA2Nzk0OTI5NSA5OS43NjEwMDE1ODY5MTQwNiA5OS44MjQ5OTY5NDgyNDIxOSI+JiN4YTs8c3R5bGUgdHlwZT0idGV4dC9jc3MiPiYjeGE7CS5zdDB7ZmlsbDojNjY5ZGY2O30mI3hhOwkuc3Qxe2ZpbGw6IzQyODVmNDt9JiN4YTsJLnN0MntmaWxsOiNhZWNiZmE7fSYjeGE7PC9zdHlsZT4mI3hhOwk8cGF0aCBjbGFzcz0ic3QwIiBkPSJNODAuNTkzIDE5LjE4djIwLjE5OWgxOS4yOTlWOS41M2MwLTIuNTM3LS45NzktNC44NDYtMi41OC02LjU2OHptLTkuOTA4IDYxLjIyNUgxOS40MzFMMy40NSA5Ny4zMzdjMS42OTUgMS40NzQgMy45MDggMi4zNjcgNi4zMzEgMi4zNjdoNzAuNTU1YzIuODczIDAgNS40NTMtMS4yNTYgNy4yMjEtMy4yNDh6Ii8+JiN4YTsJPHBhdGggY2xhc3M9InN0MSIgZD0iTTg3LjU3MyA5Ni40MzdjMS41MDEtMS43MDEgMi40MTMtMy45MzUgMi40MTMtNi4zODJWNjAuMjA0SDcwLjY4NXYyMC4yMDF6Ii8+JiN4YTsJPHBhdGggY2xhc3M9InN0MiIgZD0iTTE5LjQzMSA4MC40MDVWMjkuMzRoMjAuNTc4VjEwLjA0SDkuNzgxYy01LjMzIDAtOS42NSA0LjMyMS05LjY1IDkuNjV2NzAuMzY1Yy4wMDEgMi45MDYgMS4yODYgNS41MTMgMy4zMiA3LjI4MXptNzcuODgtNzcuNDQzQzk1LjU1IDEuMDY2IDkzLjAzNi0uMTIgOTAuMjQ0LS4xMjFINTkuOTUxVjE5LjE4aDIwLjY0M3oiLz4mI3hhOzwvc3ZnPg==;" parent="HQnmu_KGiObmo_e5Pi8O-87" vertex="1">
          <mxGeometry width="30" height="30" relative="1" as="geometry">
            <mxPoint x="15" y="15" as="offset" />
          </mxGeometry>
        </mxCell>
        <mxCell id="HQnmu_KGiObmo_e5Pi8O-89" value="" style="edgeStyle=orthogonalEdgeStyle;fontSize=12;html=1;endArrow=blockThin;endFill=1;rounded=0;strokeWidth=2;endSize=4;startSize=4;dashed=0;strokeColor=#4284F3;" parent="1" edge="1">
          <mxGeometry width="100" relative="1" as="geometry">
            <mxPoint x="431" y="316" as="sourcePoint" />
            <mxPoint x="540" y="316" as="targetPoint" />
          </mxGeometry>
        </mxCell>
        <mxCell id="HQnmu_KGiObmo_e5Pi8O-91" value="&lt;font style=&quot;font-size: 18px; color: light-dark(rgb(66, 123, 243), rgb(237, 237, 237));&quot;&gt;&lt;b&gt;ETL &amp;amp; Data Preparation&lt;/b&gt;&lt;/font&gt;" style="text;strokeColor=none;align=center;fillColor=none;html=1;verticalAlign=middle;whiteSpace=wrap;rounded=0;" parent="1" vertex="1">
          <mxGeometry x="1047" y="110" width="225" height="30" as="geometry" />
        </mxCell>
        <mxCell id="HQnmu_KGiObmo_e5Pi8O-135" value="" style="rounded=0;whiteSpace=wrap;html=1;" parent="1" vertex="1">
          <mxGeometry x="1460" y="180" width="193" height="160" as="geometry" />
        </mxCell>
        <mxCell id="HQnmu_KGiObmo_e5Pi8O-136" value="" style="fillColor=#ffffff;strokeColor=#dddddd;shadow=1;strokeWidth=1;rounded=1;absoluteArcSize=1;arcSize=2;" parent="1" vertex="1">
          <mxGeometry x="1482" y="250" width="150" height="70" as="geometry" />
        </mxCell>
        <mxCell id="HQnmu_KGiObmo_e5Pi8O-137" value="&lt;font color=&quot;#000000&quot;&gt;Core Tables&lt;/font&gt;&lt;br&gt;BigQuery" style="editableCssRules=.*;html=1;fontColor=#999999;shape=image;verticalLabelPosition=middle;verticalAlign=middle;labelPosition=right;align=left;spacingLeft=20;part=1;points=[];imageAspect=0;image=data:image/svg+xml,PHN2ZyB4bWxucz0iaHR0cDovL3d3dy53My5vcmcvMjAwMC9zdmciIHhtbG5zOnY9Imh0dHBzOi8vdmVjdGEuaW8vbmFubyIgd2lkdGg9IjIwLjAwMTA0NTIyNzA1MDc4IiBoZWlnaHQ9IjIwLjAwMTA0NTIyNzA1MDc4IiBmaWxsLXJ1bGU9ImV2ZW5vZGQiIHZpZXdCb3g9IjAgMCAyMC4wMDEwNDUyMjcwNTA3OCAyMC4wMDEwNDUyMjcwNTA3OCI+JiN4YTsJPHN0eWxlIHR5cGU9InRleHQvY3NzIj4mI3hhOwkuc3Qwe2ZpbGw6I2FlY2JmYTt9JiN4YTsJLnN0MXtmaWxsOiM2NjlkZjY7fSYjeGE7CS5zdDJ7ZmlsbDojNDI4NWY0O30mI3hhOwk8L3N0eWxlPiYjeGE7CTxwYXRoIGNsYXNzPSJzdDAiIGQ9Ik00LjczIDguODN2Mi42M2E0LjkxIDQuOTEgMCAwIDAgMS43MSAxLjc0VjguODN6Ii8+JiN4YTsJPHBhdGggY2xhc3M9InN0MSIgZD0iTTcuODkgNi40MXY3LjUzQTcuNjIgNy42MiAwIDAgMCA5IDE0YTggOCAwIDAgMCAxIDBWNi40MXoiLz4mI3hhOwk8cGF0aCBjbGFzcz0ic3QwIiBkPSJNMTEuNjQgOS44NnYzLjI5YTUgNSAwIDAgMCAxLjctMS44MlY5Ljg2eiIvPiYjeGE7CTxwYXRoIGNsYXNzPSJzdDIiIGQ9Ik0xNS43NCAxNC4zMmwtMS40MiAxLjQyYS40Mi40MiAwIDAgMCAwIC42bDMuNTQgMy41NGEuNDIuNDIgMCAwIDAgLjU5IDBsMS40My0xLjQzYS40Mi40MiAwIDAgMCAwLS41OWwtMy41NC0zLjU0YS40Mi40MiAwIDAgMC0uNiAwIi8+JiN4YTsJPHBhdGggY2xhc3M9InN0MSIgZD0iTTkgMGE5IDkgMCAxIDAgMCAxOEE5IDkgMCAxIDAgOSAwbTAgMTUuNjlhNi42OCA2LjY4IDAgMCAxIC4wMDctMTMuMzYgNi42OCA2LjY4IDAgMCAxIDQuNzI3IDExLjQwM0E2LjY4IDYuNjggMCAwIDEgOSAxNS42OSIvPiYjeGE7PC9zdmc+;" parent="HQnmu_KGiObmo_e5Pi8O-136" vertex="1">
          <mxGeometry width="30" height="30" relative="1" as="geometry">
            <mxPoint x="15" y="15" as="offset" />
          </mxGeometry>
        </mxCell>
        <mxCell id="HQnmu_KGiObmo_e5Pi8O-140" value="&lt;font style=&quot;font-size: 18px; color: light-dark(rgb(66, 123, 243), rgb(237, 237, 237));&quot;&gt;&lt;b&gt;Core Data Layer&lt;/b&gt;&lt;/font&gt;" style="text;strokeColor=none;align=center;fillColor=none;html=1;verticalAlign=middle;whiteSpace=wrap;rounded=0;" parent="1" vertex="1">
          <mxGeometry x="1464" y="180" width="179" height="30" as="geometry" />
        </mxCell>
        <mxCell id="HQnmu_KGiObmo_e5Pi8O-141" value="" style="rounded=0;whiteSpace=wrap;html=1;" parent="1" vertex="1">
          <mxGeometry x="1764" y="185" width="193" height="160" as="geometry" />
        </mxCell>
        <mxCell id="HQnmu_KGiObmo_e5Pi8O-142" value="&lt;font style=&quot;font-size: 18px; color: light-dark(rgb(66, 123, 243), rgb(237, 237, 237));&quot;&gt;&lt;b&gt;Data Consumption&lt;/b&gt;&lt;/font&gt;" style="text;strokeColor=none;align=center;fillColor=none;html=1;verticalAlign=middle;whiteSpace=wrap;rounded=0;" parent="1" vertex="1">
          <mxGeometry x="1771" y="185" width="179" height="30" as="geometry" />
        </mxCell>
        <mxCell id="HQnmu_KGiObmo_e5Pi8O-143" value="Bi Tool" style="rounded=0;whiteSpace=wrap;html=1;" parent="1" vertex="1">
          <mxGeometry x="1800.5" y="225" width="119.5" height="45" as="geometry" />
        </mxCell>
        <mxCell id="HQnmu_KGiObmo_e5Pi8O-144" value="Marketing Team" style="rounded=0;whiteSpace=wrap;html=1;" parent="1" vertex="1">
          <mxGeometry x="1801" y="283" width="119.5" height="45" as="geometry" />
        </mxCell>
        <mxCell id="HQnmu_KGiObmo_e5Pi8O-146" style="edgeStyle=orthogonalEdgeStyle;rounded=0;orthogonalLoop=1;jettySize=auto;html=1;exitX=1;exitY=0.25;exitDx=0;exitDy=0;entryX=0;entryY=0.25;entryDx=0;entryDy=0;" parent="1" source="HQnmu_KGiObmo_e5Pi8O-136" target="HQnmu_KGiObmo_e5Pi8O-143" edge="1">
          <mxGeometry relative="1" as="geometry" />
        </mxCell>
        <mxCell id="HQnmu_KGiObmo_e5Pi8O-148" value="Used By" style="edgeLabel;html=1;align=center;verticalAlign=middle;resizable=0;points=[];" parent="HQnmu_KGiObmo_e5Pi8O-146" vertex="1" connectable="0">
          <mxGeometry x="0.3305" y="-2" relative="1" as="geometry">
            <mxPoint as="offset" />
          </mxGeometry>
        </mxCell>
        <mxCell id="HQnmu_KGiObmo_e5Pi8O-147" style="edgeStyle=orthogonalEdgeStyle;rounded=0;orthogonalLoop=1;jettySize=auto;html=1;exitX=1;exitY=0.75;exitDx=0;exitDy=0;entryX=0;entryY=0.5;entryDx=0;entryDy=0;" parent="1" source="HQnmu_KGiObmo_e5Pi8O-136" target="HQnmu_KGiObmo_e5Pi8O-144" edge="1">
          <mxGeometry relative="1" as="geometry" />
        </mxCell>
        <mxCell id="HQnmu_KGiObmo_e5Pi8O-149" value="Used By" style="edgeLabel;html=1;align=center;verticalAlign=middle;resizable=0;points=[];" parent="HQnmu_KGiObmo_e5Pi8O-147" vertex="1" connectable="0">
          <mxGeometry x="0.1347" y="1" relative="1" as="geometry">
            <mxPoint x="-42" y="-2" as="offset" />
          </mxGeometry>
        </mxCell>
        <mxCell id="HQnmu_KGiObmo_e5Pi8O-150" value="&lt;font style=&quot;font-size: 18px; color: light-dark(rgb(66, 123, 243), rgb(237, 237, 237));&quot;&gt;&lt;b&gt;Google Cloud Platform&lt;/b&gt;&lt;/font&gt;" style="text;strokeColor=none;align=center;fillColor=none;html=1;verticalAlign=middle;whiteSpace=wrap;rounded=0;" parent="1" vertex="1">
          <mxGeometry x="1082" y="44" width="225" height="30" as="geometry" />
        </mxCell>
        <mxCell id="S1izNGwBGKpVqLdzcg1b-8" value="Dataplex" style="sketch=0;html=1;verticalAlign=top;labelPosition=center;verticalLabelPosition=bottom;align=center;spacingTop=-6;fontSize=11;fontStyle=1;fontColor=#999999;shape=image;aspect=fixed;imageAspect=0;image=data:image/svg+xml,PHN2ZyB4bWxucz0iaHR0cDovL3d3dy53My5vcmcvMjAwMC9zdmciIGlkPSJzdmcxMTkyNDEiIHZlcnNpb249IjEuMSIgdmlld0JveD0iMCAwIDI2NS4yMzA0NyAyODcuNzcxNDgiIGhlaWdodD0iMjg3Ljc3MTQ4bW0iIHdpZHRoPSIyNjUuMjMwNDdtbSI+JiN4YTsgICYjeGE7ICA8ZGVmcyBpZD0iZGVmczExOTIzOCIvPiYjeGE7ICA8ZyB0cmFuc2Zvcm09InRyYW5zbGF0ZSgyNS41NDQ5MjIsLTUuNzEyODkwNikiIGlkPSJsYXllcjEiPiYjeGE7ICAgIDxwYXRoIGQ9Im0gMjExLjAwMzkxLDE4OS44NzMwNSBjIC0xNS43NDAzMSwwIC0yOC42ODM2LDEyLjk0MzI5IC0yOC42ODM2LDI4LjY4MzU5IDAsMTUuNzQwMzEgMTIuOTQzMjksMjguNjgxNjQgMjguNjgzNiwyOC42ODE2NCAxNS43NDAzLDAgMjguNjgxNjQsLTEyLjk0MTMzIDI4LjY4MTY0LC0yOC42ODE2NCAwLC0xNS43NDAzIC0xMi45NDEzNCwtMjguNjgzNTkgLTI4LjY4MTY0LC0yOC42ODM1OSB6IE0gMy4wMzMyMDMxLDUxLjQ0OTIxOSBjIC0xNS42ODMyMDUxLDAgLTI4LjU3ODEyNTEsMTIuODk0OTIgLTI4LjU3ODEyNTEsMjguNTc4MTI1IDRlLTYsMTUuNjgzMjAyIDEyLjg5NDkyMywyOC41ODAwNzYgMjguNTc4MTI1MSwyOC41ODAwNzYgMTUuNjgzMjAxOSwwIDI4LjU4MDA3MzksLTEyLjg5Njg3NCAyOC41ODAwNzc5LC0yOC41ODAwNzYgMCwtMTUuNjgzMjA1IC0xMi44OTY4NzMsLTI4LjU3ODEyNSAtMjguNTgwMDc3OSwtMjguNTc4MTI1IHogTSAxMDcuNzcxNDgsNS43MTI4OTA2IDQ1LjU4Mzk4NCw0Mi4zODY3MTkgNTcuMjY3NTc4LDYyLjE5OTIxOSA5Ni40NDMzNTksMzkuMDk1NzAzIFYgMTI4LjI1MzkxIEwgMjQuOTE5OTIyLDgwLjAyNzM0NCAxMi4wNjA1NDcsOTkuMDk3NjU2IDg2LjY3NTc4MSwxNDkuNDA4MiAxMy45OTQxNDEsMTk4LjIwMTE3IFYgMTMyLjU5NTcgSCAtOS4wMDU4NTk0IHYgOTAuOTUzMTMgbCAxMTcuMTA1NDY5NCw2OS45MzU1NCA1OS42Nzc3MywtMzUuOTc0NiAtMTEuODc1LC0xOS42OTcyNyAtMzYuNDU4OTgsMjEuOTc2NTYgdiAtODguMjg3MTEgbCA3MC4wMDk3Niw0Ny4yMDUwOCAxMi44NTc0MywtMTkuMDcwMzEgLTc0LjQzMTY0LC01MC4xODc1IDczLjkxMDE1LC00OS42MTcxODkgdiA2Ni41ODAwNzkgaCAyMyBWIDc0LjkxNDA2MiBaIG0gMTEuNjcxODgsMzMuNjIzMDQ2NCA2OS43NSw0MS4yNDgwNDcgLTY5Ljc1LDQ2LjgyNjE3NiB6IE0gOTYuNDQzMzU5LDE3MC41NTQ2OSB2IDg5LjE3OTY4IEwgMjYuMTQyNTc4LDIxNy43NSBaIiBzdHlsZT0iY29sb3I6IzAwMDAwMDtvcGFjaXR5OjE7ZmlsbDojNTk4NmYyO2ZpbGwtb3BhY2l0eToxO3N0cm9rZS1saW5lam9pbjpyb3VuZDstaW5rc2NhcGUtc3Ryb2tlOm5vbmUiIGlkPSJwYXRoMTE5NDA3LTQiLz4mI3hhOyAgICA8cGF0aCBkPSJtIDMuMDMzMTk3Niw2OC40NDkyMTkgYyA2LjQ5NTczNjcsMCAxMS41ODAwODM0LDUuMDgyMzkzIDExLjU4MDA4MzQsMTEuNTc4MTI1IDAsNi40OTU3MzEgLTUuMDg0MzQ2NywxMS41ODAwNzggLTExLjU4MDA4MzQsMTEuNTgwMDc4IC02LjQ5NTcyNjcsMCAtMTEuNTc4MTIzNCwtNS4wODQzNDcgLTExLjU3ODEyMzQsLTExLjU4MDA3OCAwLC02LjQ5NTczMiA1LjA4MjM5NjcsLTExLjU3ODEyNSAxMS41NzgxMjM0LC0xMS41NzgxMjUgeiBNIDIxMS4wMDM5MSwyMDYuODczMDUgYyA2LjU1MjgzLDAgMTEuNjgxNjQsNS4xMzA3NiAxMS42ODE2NCwxMS42ODM1OSAwLDYuNTUyODMgLTUuMTI4ODEsMTEuNjgxNjQgLTExLjY4MTY0LDExLjY4MTY0IC02LjU1Mjg0LDAgLTExLjY4MzYsLTUuMTI4ODEgLTExLjY4MzYsLTExLjY4MTY0IDAsLTYuNTUyODMgNS4xMzA3NiwtMTEuNjgzNTkgMTEuNjgzNiwtMTEuNjgzNTkgeiBNIDEwNy43NjM2Nyw5OC41NTQ2ODcgYyAtMjcuNzcyNTc4LDNlLTYgLTUwLjUyMzQzMywyMi43NTA4NjMgLTUwLjUyMzQzMyw1MC41MjM0MzMgMCwyNy43NzI1OCAyMi43NTA4NTUsNTAuNTIxNDkgNTAuNTIzNDMzLDUwLjUyMTQ5IDI3Ljc3MjU4LDAgNTAuNTIzNDQsLTIyLjc0ODkxIDUwLjUyMzQ0LC01MC41MjE0OSAwLC0yNy43NzI1NyAtMjIuNzUwODYsLTUwLjUyMzQzNyAtNTAuNTIzNDQsLTUwLjUyMzQzMyB6IiBzdHlsZT0iY29sb3I6IzAwMDAwMDtvcGFjaXR5OjE7ZmlsbDojZmZmZmZmO2ZpbGwtb3BhY2l0eToxO3N0cm9rZS1saW5lam9pbjpyb3VuZDstaW5rc2NhcGUtc3Ryb2tlOm5vbmUiIGlkPSJwYXRoMTM3Mjg5Ii8+JiN4YTsgICAgPHBhdGggaWQ9InBhdGgxMjAyMDMiIGQ9Im0gMTA3Ljc2MzY3LDEyMC41NTQ2OSBjIDE1Ljg4MjkxLC0xMGUtNiAyOC41MjM0NCwxMi42NDA1MyAyOC41MjM0NCwyOC41MjM0MyAwLDE1Ljg4MjkxIC0xMi42NDA1MywyOC41MjE0OSAtMjguNTIzNDQsMjguNTIxNDkgLTE1Ljg4MjkwNCwwIC0yOC41MjM0MzgsLTEyLjYzODU4IC0yOC41MjM0MzgsLTI4LjUyMTQ5IDAsLTE1Ljg4MjkgMTIuNjQwNTM0LC0yOC41MjM0MyAyOC41MjM0MzgsLTI4LjUyMzQzIHoiIHN0eWxlPSJjb2xvcjojMDAwMDAwO29wYWNpdHk6MTtmaWxsOiM1OTg2ZjI7ZmlsbC1vcGFjaXR5OjE7c3Ryb2tlLWxpbmVqb2luOnJvdW5kOy1pbmtzY2FwZS1zdHJva2U6bm9uZSIvPiYjeGE7ICA8L2c+JiN4YTs8L3N2Zz4=;" vertex="1" parent="1">
          <mxGeometry x="1044" y="569" width="39" height="42" as="geometry" />
        </mxCell>
        <mxCell id="S1izNGwBGKpVqLdzcg1b-23" value="Cloud&#xa;Composer" style="sketch=0;html=1;verticalAlign=top;labelPosition=center;verticalLabelPosition=bottom;align=center;spacingTop=-6;fontSize=11;fontStyle=1;fontColor=#999999;shape=image;aspect=fixed;imageAspect=0;image=data:image/svg+xml,PHN2ZyB4bWxucz0iaHR0cDovL3d3dy53My5vcmcvMjAwMC9zdmciIHhtbG5zOnY9Imh0dHBzOi8vdmVjdGEuaW8vbmFubyIgd2lkdGg9IjE0LjY0MDAwMDM0MzMyMjc1NCIgaGVpZ2h0PSIyMCIgdmlld0JveD0iMCAwIDE0LjY0MDAwMDM0MzMyMjc1NCAyMCI+JiN4YTsJPHN0eWxlIHR5cGU9InRleHQvY3NzIj4mI3hhOwkuc3Qwe2ZpbGw6I2FlY2JmYTt9JiN4YTsJLnN0MXtmaWxsOiM0Mjg1ZjQ7fSYjeGE7CTwvc3R5bGU+JiN4YTsJPHBhdGggY2xhc3M9InN0MCIgZD0iTTAgMGgxNC42M3YzLjk0aC01LjN2NS4zM0g1LjM1VjMuOTZIMHoiLz4mI3hhOwk8cGF0aCBjbGFzcz0ic3QxIiBkPSJNMy45NSAxMC42N2g1LjM0VjIwSDUuMzV2LTUuMzVIMFY1LjM3aDMuOTV6TTE0LjY0IDIwSDEwLjdWNS4zNmgzLjk0eiIvPiYjeGE7CTxwYXRoIGNsYXNzPSJzdDAiIGQ9Ik0wIDE2LjA2aDMuOTJWMjBIMHoiLz4mI3hhOzwvc3ZnPg==;" vertex="1" parent="1">
          <mxGeometry x="894" y="400" width="36" height="47.25" as="geometry" />
        </mxCell>
        <mxCell id="S1izNGwBGKpVqLdzcg1b-34" value="" style="rounded=0;whiteSpace=wrap;html=1;" vertex="1" parent="1">
          <mxGeometry x="489" y="520" width="910" height="418.25" as="geometry" />
        </mxCell>
        <mxCell id="S1izNGwBGKpVqLdzcg1b-54" style="edgeStyle=orthogonalEdgeStyle;rounded=0;orthogonalLoop=1;jettySize=auto;html=1;exitX=1;exitY=0.5;exitDx=0;exitDy=0;entryX=0;entryY=0.75;entryDx=0;entryDy=0;" edge="1" parent="1" source="S1izNGwBGKpVqLdzcg1b-35" target="HQnmu_KGiObmo_e5Pi8O-136">
          <mxGeometry relative="1" as="geometry">
            <mxPoint x="1170" y="302.5" as="targetPoint" />
            <Array as="points">
              <mxPoint x="1010" y="565" />
              <mxPoint x="1010" y="303" />
            </Array>
          </mxGeometry>
        </mxCell>
        <mxCell id="S1izNGwBGKpVqLdzcg1b-55" value="On DQ Pass" style="edgeLabel;html=1;align=center;verticalAlign=middle;resizable=0;points=[];" vertex="1" connectable="0" parent="S1izNGwBGKpVqLdzcg1b-54">
          <mxGeometry x="0.6002" y="-8" relative="1" as="geometry">
            <mxPoint x="1" as="offset" />
          </mxGeometry>
        </mxCell>
        <mxCell id="S1izNGwBGKpVqLdzcg1b-66" style="edgeStyle=orthogonalEdgeStyle;rounded=0;orthogonalLoop=1;jettySize=auto;html=1;exitX=0.25;exitY=1;exitDx=0;exitDy=0;" edge="1" parent="1" source="S1izNGwBGKpVqLdzcg1b-35" target="HQnmu_KGiObmo_e5Pi8O-123">
          <mxGeometry relative="1" as="geometry" />
        </mxCell>
        <mxCell id="S1izNGwBGKpVqLdzcg1b-70" value="Triggers" style="edgeLabel;html=1;align=center;verticalAlign=middle;resizable=0;points=[];" vertex="1" connectable="0" parent="S1izNGwBGKpVqLdzcg1b-66">
          <mxGeometry x="-0.0763" y="6" relative="1" as="geometry">
            <mxPoint as="offset" />
          </mxGeometry>
        </mxCell>
        <mxCell id="S1izNGwBGKpVqLdzcg1b-68" style="edgeStyle=orthogonalEdgeStyle;rounded=0;orthogonalLoop=1;jettySize=auto;html=1;exitX=0.75;exitY=1;exitDx=0;exitDy=0;entryX=0.25;entryY=0;entryDx=0;entryDy=0;" edge="1" parent="1" source="S1izNGwBGKpVqLdzcg1b-35" target="HQnmu_KGiObmo_e5Pi8O-129">
          <mxGeometry relative="1" as="geometry">
            <Array as="points">
              <mxPoint x="705" y="630" />
              <mxPoint x="925" y="630" />
            </Array>
          </mxGeometry>
        </mxCell>
        <mxCell id="S1izNGwBGKpVqLdzcg1b-35" value="" style="fillColor=#ffffff;strokeColor=#dddddd;shadow=1;strokeWidth=1;rounded=1;absoluteArcSize=1;arcSize=2;" vertex="1" parent="1">
          <mxGeometry x="570" y="535" width="180" height="60" as="geometry" />
        </mxCell>
        <mxCell id="S1izNGwBGKpVqLdzcg1b-36" value="&lt;font color=&quot;#000000&quot;&gt;Data Quality Check&lt;/font&gt;&lt;br&gt;Cloud Data Fusion" style="editableCssRules=.*;html=1;fontColor=#999999;shape=image;verticalLabelPosition=middle;verticalAlign=middle;labelPosition=right;align=left;spacingLeft=20;part=1;points=[];imageAspect=0;image=data:image/svg+xml,PHN2ZyB4bWxucz0iaHR0cDovL3d3dy53My5vcmcvMjAwMC9zdmciIHhtbG5zOnY9Imh0dHBzOi8vdmVjdGEuaW8vbmFubyIgd2lkdGg9IjM3Ny4wNDk2OTgzMjc3ODkyNiIgaGVpZ2h0PSIzNzcuMjkxNTcwNzE1Nzg5NzYiIHZpZXdCb3g9IjAuMTMxMDAwNTE4Nzk4ODI4MTIgLTAuMTIxMDAwMDA2Nzk0OTI5NSA5OS43NjEwMDE1ODY5MTQwNiA5OS44MjQ5OTY5NDgyNDIxOSI+JiN4YTs8c3R5bGUgdHlwZT0idGV4dC9jc3MiPiYjeGE7CS5zdDB7ZmlsbDojNjY5ZGY2O30mI3hhOwkuc3Qxe2ZpbGw6IzQyODVmNDt9JiN4YTsJLnN0MntmaWxsOiNhZWNiZmE7fSYjeGE7PC9zdHlsZT4mI3hhOwk8cGF0aCBjbGFzcz0ic3QwIiBkPSJNODAuNTkzIDE5LjE4djIwLjE5OWgxOS4yOTlWOS41M2MwLTIuNTM3LS45NzktNC44NDYtMi41OC02LjU2OHptLTkuOTA4IDYxLjIyNUgxOS40MzFMMy40NSA5Ny4zMzdjMS42OTUgMS40NzQgMy45MDggMi4zNjcgNi4zMzEgMi4zNjdoNzAuNTU1YzIuODczIDAgNS40NTMtMS4yNTYgNy4yMjEtMy4yNDh6Ii8+JiN4YTsJPHBhdGggY2xhc3M9InN0MSIgZD0iTTg3LjU3MyA5Ni40MzdjMS41MDEtMS43MDEgMi40MTMtMy45MzUgMi40MTMtNi4zODJWNjAuMjA0SDcwLjY4NXYyMC4yMDF6Ii8+JiN4YTsJPHBhdGggY2xhc3M9InN0MiIgZD0iTTE5LjQzMSA4MC40MDVWMjkuMzRoMjAuNTc4VjEwLjA0SDkuNzgxYy01LjMzIDAtOS42NSA0LjMyMS05LjY1IDkuNjV2NzAuMzY1Yy4wMDEgMi45MDYgMS4yODYgNS41MTMgMy4zMiA3LjI4MXptNzcuODgtNzcuNDQzQzk1LjU1IDEuMDY2IDkzLjAzNi0uMTIgOTAuMjQ0LS4xMjFINTkuOTUxVjE5LjE4aDIwLjY0M3oiLz4mI3hhOzwvc3ZnPg==;" vertex="1" parent="S1izNGwBGKpVqLdzcg1b-35">
          <mxGeometry width="30" height="30" relative="1" as="geometry">
            <mxPoint x="15" y="15" as="offset" />
          </mxGeometry>
        </mxCell>
        <mxCell id="S1izNGwBGKpVqLdzcg1b-53" style="edgeStyle=orthogonalEdgeStyle;rounded=0;orthogonalLoop=1;jettySize=auto;html=1;exitX=0.25;exitY=1;exitDx=0;exitDy=0;entryX=0.134;entryY=-0.126;entryDx=0;entryDy=0;entryPerimeter=0;" edge="1" parent="1" source="HQnmu_KGiObmo_e5Pi8O-60" target="S1izNGwBGKpVqLdzcg1b-35">
          <mxGeometry relative="1" as="geometry" />
        </mxCell>
        <mxCell id="S1izNGwBGKpVqLdzcg1b-56" value="&lt;font style=&quot;font-size: 18px; color: light-dark(rgb(66, 123, 243), rgb(237, 237, 237));&quot;&gt;&lt;b&gt;Data Quality &amp;amp; Validation&lt;/b&gt;&lt;/font&gt;" style="text;strokeColor=none;align=center;fillColor=none;html=1;verticalAlign=middle;whiteSpace=wrap;rounded=0;" vertex="1" parent="1">
          <mxGeometry x="1160" y="891" width="225" height="30" as="geometry" />
        </mxCell>
        <mxCell id="S1izNGwBGKpVqLdzcg1b-67" style="edgeStyle=orthogonalEdgeStyle;rounded=0;orthogonalLoop=1;jettySize=auto;html=1;exitX=0.25;exitY=1;exitDx=0;exitDy=0;" edge="1" parent="1" source="HQnmu_KGiObmo_e5Pi8O-117" target="HQnmu_KGiObmo_e5Pi8O-123">
          <mxGeometry relative="1" as="geometry">
            <Array as="points">
              <mxPoint x="1090" y="681" />
              <mxPoint x="840" y="681" />
              <mxPoint x="840" y="769" />
            </Array>
          </mxGeometry>
        </mxCell>
        <mxCell id="S1izNGwBGKpVqLdzcg1b-69" style="edgeStyle=orthogonalEdgeStyle;rounded=0;orthogonalLoop=1;jettySize=auto;html=1;exitX=0.5;exitY=1;exitDx=0;exitDy=0;entryX=1;entryY=0.5;entryDx=0;entryDy=0;" edge="1" parent="1" source="HQnmu_KGiObmo_e5Pi8O-117" target="HQnmu_KGiObmo_e5Pi8O-129">
          <mxGeometry relative="1" as="geometry" />
        </mxCell>
        <mxCell id="HQnmu_KGiObmo_e5Pi8O-117" value="Data Quality Checks" style="fillColor=#ffffff;strokeColor=#dddddd;shadow=1;strokeWidth=1;rounded=1;absoluteArcSize=1;arcSize=0;" parent="1" vertex="1">
          <mxGeometry x="1035" y="561" width="220" height="70" as="geometry" />
        </mxCell>
        <mxCell id="HQnmu_KGiObmo_e5Pi8O-123" value="" style="sketch=0;outlineConnect=0;fontColor=#232F3E;gradientColor=none;fillColor=#E7157B;strokeColor=none;dashed=0;verticalLabelPosition=bottom;verticalAlign=top;align=center;html=1;fontSize=12;fontStyle=0;aspect=fixed;pointerEvents=1;shape=mxgraph.aws4.email_notification;" parent="1" vertex="1">
          <mxGeometry x="731" y="730" width="78" height="78" as="geometry" />
        </mxCell>
        <mxCell id="HQnmu_KGiObmo_e5Pi8O-127" value="" style="edgeStyle=orthogonalEdgeStyle;fontSize=12;html=1;endArrow=blockThin;endFill=1;rounded=0;strokeWidth=2;endSize=4;startSize=4;dashed=0;strokeColor=#4284F3;entryX=0;entryY=0.25;entryDx=0;entryDy=0;" parent="1" target="HQnmu_KGiObmo_e5Pi8O-124" edge="1">
          <mxGeometry width="100" relative="1" as="geometry">
            <mxPoint x="771" y="807" as="sourcePoint" />
            <mxPoint x="828" y="807" as="targetPoint" />
            <Array as="points">
              <mxPoint x="771" y="876" />
            </Array>
          </mxGeometry>
        </mxCell>
        <mxCell id="HQnmu_KGiObmo_e5Pi8O-128" value="Notifies" style="edgeLabel;html=1;align=center;verticalAlign=middle;resizable=0;points=[];" parent="HQnmu_KGiObmo_e5Pi8O-127" vertex="1" connectable="0">
          <mxGeometry x="-0.4398" relative="1" as="geometry">
            <mxPoint as="offset" />
          </mxGeometry>
        </mxCell>
        <mxCell id="HQnmu_KGiObmo_e5Pi8O-132" style="edgeStyle=orthogonalEdgeStyle;rounded=0;orthogonalLoop=1;jettySize=auto;html=1;exitX=0.5;exitY=1;exitDx=0;exitDy=0;entryX=1;entryY=0.5;entryDx=0;entryDy=0;" parent="1" source="HQnmu_KGiObmo_e5Pi8O-129" target="HQnmu_KGiObmo_e5Pi8O-124" edge="1">
          <mxGeometry relative="1" as="geometry" />
        </mxCell>
        <mxCell id="HQnmu_KGiObmo_e5Pi8O-134" value="Accessible to" style="edgeLabel;html=1;align=center;verticalAlign=middle;resizable=0;points=[];" parent="HQnmu_KGiObmo_e5Pi8O-132" vertex="1" connectable="0">
          <mxGeometry x="-0.6431" relative="1" as="geometry">
            <mxPoint as="offset" />
          </mxGeometry>
        </mxCell>
        <mxCell id="HQnmu_KGiObmo_e5Pi8O-129" value="" style="fillColor=#ffffff;strokeColor=#dddddd;shadow=1;strokeWidth=1;rounded=1;absoluteArcSize=1;arcSize=2;" parent="1" vertex="1">
          <mxGeometry x="873" y="738" width="208" height="70" as="geometry" />
        </mxCell>
        <mxCell id="HQnmu_KGiObmo_e5Pi8O-130" value="&lt;font color=&quot;#000000&quot;&gt;DQ Audit/ Error Log Table&lt;/font&gt;&lt;br&gt;BigQuery" style="editableCssRules=.*;html=1;fontColor=#999999;shape=image;verticalLabelPosition=middle;verticalAlign=middle;labelPosition=right;align=left;spacingLeft=20;part=1;points=[];imageAspect=0;image=data:image/svg+xml,PHN2ZyB4bWxucz0iaHR0cDovL3d3dy53My5vcmcvMjAwMC9zdmciIHhtbG5zOnY9Imh0dHBzOi8vdmVjdGEuaW8vbmFubyIgd2lkdGg9IjIwLjAwMTA0NTIyNzA1MDc4IiBoZWlnaHQ9IjIwLjAwMTA0NTIyNzA1MDc4IiBmaWxsLXJ1bGU9ImV2ZW5vZGQiIHZpZXdCb3g9IjAgMCAyMC4wMDEwNDUyMjcwNTA3OCAyMC4wMDEwNDUyMjcwNTA3OCI+JiN4YTsJPHN0eWxlIHR5cGU9InRleHQvY3NzIj4mI3hhOwkuc3Qwe2ZpbGw6I2FlY2JmYTt9JiN4YTsJLnN0MXtmaWxsOiM2NjlkZjY7fSYjeGE7CS5zdDJ7ZmlsbDojNDI4NWY0O30mI3hhOwk8L3N0eWxlPiYjeGE7CTxwYXRoIGNsYXNzPSJzdDAiIGQ9Ik00LjczIDguODN2Mi42M2E0LjkxIDQuOTEgMCAwIDAgMS43MSAxLjc0VjguODN6Ii8+JiN4YTsJPHBhdGggY2xhc3M9InN0MSIgZD0iTTcuODkgNi40MXY3LjUzQTcuNjIgNy42MiAwIDAgMCA5IDE0YTggOCAwIDAgMCAxIDBWNi40MXoiLz4mI3hhOwk8cGF0aCBjbGFzcz0ic3QwIiBkPSJNMTEuNjQgOS44NnYzLjI5YTUgNSAwIDAgMCAxLjctMS44MlY5Ljg2eiIvPiYjeGE7CTxwYXRoIGNsYXNzPSJzdDIiIGQ9Ik0xNS43NCAxNC4zMmwtMS40MiAxLjQyYS40Mi40MiAwIDAgMCAwIC42bDMuNTQgMy41NGEuNDIuNDIgMCAwIDAgLjU5IDBsMS40My0xLjQzYS40Mi40MiAwIDAgMCAwLS41OWwtMy41NC0zLjU0YS40Mi40MiAwIDAgMC0uNiAwIi8+JiN4YTsJPHBhdGggY2xhc3M9InN0MSIgZD0iTTkgMGE5IDkgMCAxIDAgMCAxOEE5IDkgMCAxIDAgOSAwbTAgMTUuNjlhNi42OCA2LjY4IDAgMCAxIC4wMDctMTMuMzYgNi42OCA2LjY4IDAgMCAxIDQuNzI3IDExLjQwM0E2LjY4IDYuNjggMCAwIDEgOSAxNS42OSIvPiYjeGE7PC9zdmc+;" parent="HQnmu_KGiObmo_e5Pi8O-129" vertex="1">
          <mxGeometry width="30" height="30" relative="1" as="geometry">
            <mxPoint x="15" y="15" as="offset" />
          </mxGeometry>
        </mxCell>
        <mxCell id="HQnmu_KGiObmo_e5Pi8O-124" value="Data Operation Team" style="rounded=0;whiteSpace=wrap;html=1;" parent="1" vertex="1">
          <mxGeometry x="829" y="861" width="120" height="60" as="geometry" />
        </mxCell>
        <mxCell id="S1izNGwBGKpVqLdzcg1b-19" style="edgeStyle=orthogonalEdgeStyle;rounded=0;orthogonalLoop=1;jettySize=auto;html=1;exitX=1;exitY=0.5;exitDx=0;exitDy=0;entryX=0.5;entryY=1;entryDx=0;entryDy=0;" edge="1" parent="1" source="HQnmu_KGiObmo_e5Pi8O-117" target="HQnmu_KGiObmo_e5Pi8O-136">
          <mxGeometry relative="1" as="geometry" />
        </mxCell>
        <mxCell id="S1izNGwBGKpVqLdzcg1b-20" value="On DQ Pass" style="edgeLabel;html=1;align=center;verticalAlign=middle;resizable=0;points=[];" vertex="1" connectable="0" parent="S1izNGwBGKpVqLdzcg1b-19">
          <mxGeometry x="0.8543" y="-3" relative="1" as="geometry">
            <mxPoint as="offset" />
          </mxGeometry>
        </mxCell>
        <mxCell id="S1izNGwBGKpVqLdzcg1b-58" style="edgeStyle=orthogonalEdgeStyle;rounded=0;orthogonalLoop=1;jettySize=auto;html=1;exitX=0.5;exitY=1;exitDx=0;exitDy=0;entryX=0.25;entryY=0;entryDx=0;entryDy=0;" edge="1" parent="1" source="S1izNGwBGKpVqLdzcg1b-23" target="HQnmu_KGiObmo_e5Pi8O-117">
          <mxGeometry relative="1" as="geometry" />
        </mxCell>
        <mxCell id="S1izNGwBGKpVqLdzcg1b-59" value="Dataplex" style="sketch=0;html=1;verticalAlign=top;labelPosition=center;verticalLabelPosition=bottom;align=center;spacingTop=-6;fontSize=11;fontStyle=1;fontColor=#999999;shape=image;aspect=fixed;imageAspect=0;image=data:image/svg+xml,PHN2ZyB4bWxucz0iaHR0cDovL3d3dy53My5vcmcvMjAwMC9zdmciIGlkPSJzdmcxMTkyNDEiIHZlcnNpb249IjEuMSIgdmlld0JveD0iMCAwIDI2NS4yMzA0NyAyODcuNzcxNDgiIGhlaWdodD0iMjg3Ljc3MTQ4bW0iIHdpZHRoPSIyNjUuMjMwNDdtbSI+JiN4YTsgICYjeGE7ICA8ZGVmcyBpZD0iZGVmczExOTIzOCIvPiYjeGE7ICA8ZyB0cmFuc2Zvcm09InRyYW5zbGF0ZSgyNS41NDQ5MjIsLTUuNzEyODkwNikiIGlkPSJsYXllcjEiPiYjeGE7ICAgIDxwYXRoIGQ9Im0gMjExLjAwMzkxLDE4OS44NzMwNSBjIC0xNS43NDAzMSwwIC0yOC42ODM2LDEyLjk0MzI5IC0yOC42ODM2LDI4LjY4MzU5IDAsMTUuNzQwMzEgMTIuOTQzMjksMjguNjgxNjQgMjguNjgzNiwyOC42ODE2NCAxNS43NDAzLDAgMjguNjgxNjQsLTEyLjk0MTMzIDI4LjY4MTY0LC0yOC42ODE2NCAwLC0xNS43NDAzIC0xMi45NDEzNCwtMjguNjgzNTkgLTI4LjY4MTY0LC0yOC42ODM1OSB6IE0gMy4wMzMyMDMxLDUxLjQ0OTIxOSBjIC0xNS42ODMyMDUxLDAgLTI4LjU3ODEyNTEsMTIuODk0OTIgLTI4LjU3ODEyNTEsMjguNTc4MTI1IDRlLTYsMTUuNjgzMjAyIDEyLjg5NDkyMywyOC41ODAwNzYgMjguNTc4MTI1MSwyOC41ODAwNzYgMTUuNjgzMjAxOSwwIDI4LjU4MDA3MzksLTEyLjg5Njg3NCAyOC41ODAwNzc5LC0yOC41ODAwNzYgMCwtMTUuNjgzMjA1IC0xMi44OTY4NzMsLTI4LjU3ODEyNSAtMjguNTgwMDc3OSwtMjguNTc4MTI1IHogTSAxMDcuNzcxNDgsNS43MTI4OTA2IDQ1LjU4Mzk4NCw0Mi4zODY3MTkgNTcuMjY3NTc4LDYyLjE5OTIxOSA5Ni40NDMzNTksMzkuMDk1NzAzIFYgMTI4LjI1MzkxIEwgMjQuOTE5OTIyLDgwLjAyNzM0NCAxMi4wNjA1NDcsOTkuMDk3NjU2IDg2LjY3NTc4MSwxNDkuNDA4MiAxMy45OTQxNDEsMTk4LjIwMTE3IFYgMTMyLjU5NTcgSCAtOS4wMDU4NTk0IHYgOTAuOTUzMTMgbCAxMTcuMTA1NDY5NCw2OS45MzU1NCA1OS42Nzc3MywtMzUuOTc0NiAtMTEuODc1LC0xOS42OTcyNyAtMzYuNDU4OTgsMjEuOTc2NTYgdiAtODguMjg3MTEgbCA3MC4wMDk3Niw0Ny4yMDUwOCAxMi44NTc0MywtMTkuMDcwMzEgLTc0LjQzMTY0LC01MC4xODc1IDczLjkxMDE1LC00OS42MTcxODkgdiA2Ni41ODAwNzkgaCAyMyBWIDc0LjkxNDA2MiBaIG0gMTEuNjcxODgsMzMuNjIzMDQ2NCA2OS43NSw0MS4yNDgwNDcgLTY5Ljc1LDQ2LjgyNjE3NiB6IE0gOTYuNDQzMzU5LDE3MC41NTQ2OSB2IDg5LjE3OTY4IEwgMjYuMTQyNTc4LDIxNy43NSBaIiBzdHlsZT0iY29sb3I6IzAwMDAwMDtvcGFjaXR5OjE7ZmlsbDojNTk4NmYyO2ZpbGwtb3BhY2l0eToxO3N0cm9rZS1saW5lam9pbjpyb3VuZDstaW5rc2NhcGUtc3Ryb2tlOm5vbmUiIGlkPSJwYXRoMTE5NDA3LTQiLz4mI3hhOyAgICA8cGF0aCBkPSJtIDMuMDMzMTk3Niw2OC40NDkyMTkgYyA2LjQ5NTczNjcsMCAxMS41ODAwODM0LDUuMDgyMzkzIDExLjU4MDA4MzQsMTEuNTc4MTI1IDAsNi40OTU3MzEgLTUuMDg0MzQ2NywxMS41ODAwNzggLTExLjU4MDA4MzQsMTEuNTgwMDc4IC02LjQ5NTcyNjcsMCAtMTEuNTc4MTIzNCwtNS4wODQzNDcgLTExLjU3ODEyMzQsLTExLjU4MDA3OCAwLC02LjQ5NTczMiA1LjA4MjM5NjcsLTExLjU3ODEyNSAxMS41NzgxMjM0LC0xMS41NzgxMjUgeiBNIDIxMS4wMDM5MSwyMDYuODczMDUgYyA2LjU1MjgzLDAgMTEuNjgxNjQsNS4xMzA3NiAxMS42ODE2NCwxMS42ODM1OSAwLDYuNTUyODMgLTUuMTI4ODEsMTEuNjgxNjQgLTExLjY4MTY0LDExLjY4MTY0IC02LjU1Mjg0LDAgLTExLjY4MzYsLTUuMTI4ODEgLTExLjY4MzYsLTExLjY4MTY0IDAsLTYuNTUyODMgNS4xMzA3NiwtMTEuNjgzNTkgMTEuNjgzNiwtMTEuNjgzNTkgeiBNIDEwNy43NjM2Nyw5OC41NTQ2ODcgYyAtMjcuNzcyNTc4LDNlLTYgLTUwLjUyMzQzMywyMi43NTA4NjMgLTUwLjUyMzQzMyw1MC41MjM0MzMgMCwyNy43NzI1OCAyMi43NTA4NTUsNTAuNTIxNDkgNTAuNTIzNDMzLDUwLjUyMTQ5IDI3Ljc3MjU4LDAgNTAuNTIzNDQsLTIyLjc0ODkxIDUwLjUyMzQ0LC01MC41MjE0OSAwLC0yNy43NzI1NyAtMjIuNzUwODYsLTUwLjUyMzQzNyAtNTAuNTIzNDQsLTUwLjUyMzQzMyB6IiBzdHlsZT0iY29sb3I6IzAwMDAwMDtvcGFjaXR5OjE7ZmlsbDojZmZmZmZmO2ZpbGwtb3BhY2l0eToxO3N0cm9rZS1saW5lam9pbjpyb3VuZDstaW5rc2NhcGUtc3Ryb2tlOm5vbmUiIGlkPSJwYXRoMTM3Mjg5Ii8+JiN4YTsgICAgPHBhdGggaWQ9InBhdGgxMjAyMDMiIGQ9Im0gMTA3Ljc2MzY3LDEyMC41NTQ2OSBjIDE1Ljg4MjkxLC0xMGUtNiAyOC41MjM0NCwxMi42NDA1MyAyOC41MjM0NCwyOC41MjM0MyAwLDE1Ljg4MjkxIC0xMi42NDA1MywyOC41MjE0OSAtMjguNTIzNDQsMjguNTIxNDkgLTE1Ljg4MjkwNCwwIC0yOC41MjM0MzgsLTEyLjYzODU4IC0yOC41MjM0MzgsLTI4LjUyMTQ5IDAsLTE1Ljg4MjkgMTIuNjQwNTM0LC0yOC41MjM0MyAyOC41MjM0MzgsLTI4LjUyMzQzIHoiIHN0eWxlPSJjb2xvcjojMDAwMDAwO29wYWNpdHk6MTtmaWxsOiM1OTg2ZjI7ZmlsbC1vcGFjaXR5OjE7c3Ryb2tlLWxpbmVqb2luOnJvdW5kOy1pbmtzY2FwZS1zdHJva2U6bm9uZSIvPiYjeGE7ICA8L2c+JiN4YTs8L3N2Zz4=;" vertex="1" parent="1">
          <mxGeometry x="1043" y="569" width="39" height="42" as="geometry" />
        </mxCell>
      </root>
    </mxGraphModel>
  </diagram>
</mxfile>
